<svg width="32" height="64" viewBox="0 0 32 64" fill="none" xmlns="http://www.w3.org/2000/svg">
  <path
    d="M21.6317 0.618099C21.0426 0.966579 19.8643 1.34186 19.0271 1.44909C17.8799 1.58312 17.2598 1.85118 16.3916 2.62856C15.3684 3.48636 15.1513 3.56678 14.6862 3.27191C14.3762 3.08426 13.787 2.92343 13.3839 2.92343C12.9188 2.92343 12.2057 2.54814 11.5235 1.95841C10.0972 0.69852 9.29107 0.805744 8.67094 2.3605C8.42289 3.00385 7.74074 3.94206 7.21363 4.45138C6.56249 5.01431 6.1284 5.76488 6.00438 6.43503C5.88035 6.99796 5.6323 7.48047 5.44626 7.48047C5.26022 7.48047 4.48505 7.10518 3.7409 6.67628C2.99674 6.22058 2.19057 5.8721 1.94251 5.8721C1.44641 5.8721 0.919297 6.94435 0.919297 7.96298C0.919297 8.36507 0.702251 8.928 0.454198 9.19606C-0.320967 10.0807 -0.10392 11.4478 1.10534 13.2974C2.12855 14.9058 2.19057 15.1202 1.8805 16.1389C1.66345 16.8894 1.66345 17.64 1.8805 18.4442C2.25258 19.9185 2.50063 20.3206 4.01995 21.8218C4.73311 22.5187 5.32223 23.4569 5.44626 24.0199C5.72532 25.3334 5.1672 28.845 3.55486 36.163C1.22936 46.537 1.07433 47.6361 1.13634 54.6593C1.16735 61.334 1.4154 63.8002 2.09755 63.9878C2.46963 64.095 2.46963 63.5321 2.25258 60.7979C1.8805 56.0264 2.03553 49.1104 2.62466 45.6792C3.3068 41.417 5.04317 33.7505 5.29122 33.7505C5.41525 33.7505 5.57028 33.9917 5.6633 34.2866C5.84934 34.9568 6.68652 35.2516 7.21363 34.8495C7.46168 34.6887 7.83376 34.0722 8.05081 33.4824C8.26786 32.8927 8.60893 32.4102 8.79497 32.4102C9.01201 32.4102 9.72516 33.402 10.3763 34.6083C11.0895 35.895 11.8026 36.8332 12.0817 36.8332C12.4848 36.8332 13.725 35.4929 14.0041 34.7691C14.0971 34.5547 14.3762 34.6083 14.8723 34.9032C15.8645 35.4929 17.1357 35.4929 17.7249 34.8763C17.9729 34.6351 18.562 33.5092 19.0581 32.4102C19.5232 31.3111 20.1124 30.1853 20.3294 29.9172C20.7015 29.4347 20.7325 29.4347 21.0116 29.9172C21.1666 30.1853 21.6007 31.3915 22.0038 32.5978C22.7479 34.93 23.5231 35.9218 24.1122 35.3052C24.2983 35.1176 24.6393 34.2866 24.8564 33.5092C25.1044 32.705 25.4455 32.0081 25.6315 31.9545C26.4067 31.7132 27.4299 35.198 27.895 39.8087C28.0811 41.5511 28.7012 46.8051 29.2903 51.4425C29.8794 56.08 30.4376 60.7711 30.5616 61.8165C30.7166 63.2104 30.9027 63.7734 31.1817 63.7734C31.8018 63.7734 31.7708 62.996 30.3755 52.1663C28.5772 37.9591 28.1431 32.5442 28.2671 26.6469C28.3911 21.0444 28.1741 21.929 31.0267 16.3265C31.8949 14.6377 32.0499 14.0212 31.9879 12.4396C31.9879 11.3942 31.9569 9.8126 31.9569 8.9012C31.9569 7.98979 31.8018 7.1856 31.6158 7.07838C31.4298 6.97115 30.5616 7.07838 29.6624 7.31963C28.7632 7.53408 27.4919 7.77534 26.7788 7.82895L25.5075 7.96298L25.8176 6.97115C26.2207 5.65765 25.8796 4.18332 24.9184 3.19149C24.4843 2.76259 24.2052 2.30689 24.2983 2.17286C24.3913 2.03882 24.3293 1.5027 24.1432 0.966579C23.7711 -0.212891 23.182 -0.29331 21.6317 0.618099ZM23.244 1.44909C23.244 2.06563 23.182 2.11924 22.5619 1.82438C21.9107 1.52951 21.9107 1.5027 22.4689 1.15422C23.244 0.67171 23.244 0.671711 23.244 1.44909ZM10.8104 2.49453C11.0895 2.7894 10.9964 2.89662 10.3763 2.97704C9.78718 3.08426 9.60114 3.00385 9.60114 2.62856C9.60114 2.03882 10.3143 1.95841 10.8104 2.49453ZM22.6859 2.8162C23.9262 3.35233 24.7013 4.18332 24.9184 5.17514C25.1664 6.32781 24.3603 8.57952 23.3991 9.3569C22.5309 10.0539 22.3758 10.6972 23.089 10.6972C23.3371 10.6972 23.5541 10.5632 23.5541 10.4291C23.5541 10.0271 26.3447 8.55272 27.0888 8.55272C28.1741 8.55272 30.2825 9.83941 30.8406 10.858C31.5848 12.252 31.2747 13.7531 29.5694 16.9967C27.585 20.6959 27.2749 22.063 27.2749 27.4242C27.2749 31.8741 27.2749 31.9545 26.6858 31.4988C26.3447 31.2307 25.7556 31.0699 25.3835 31.1235C24.7013 31.2039 24.5153 31.472 23.6471 33.7505C23.5541 33.9649 23.151 33.0535 22.7169 31.74C21.8797 29.113 21.6007 28.6573 20.7635 28.6573C19.9263 28.6573 19.3372 29.4347 18.19 31.9545C17.6318 33.2144 17.0737 34.367 16.9497 34.4474C16.8567 34.5547 16.4226 34.5547 15.9885 34.4474C14.9653 34.233 14.6242 33.1876 15.3063 32.2762C15.6164 31.8741 15.6784 31.5792 15.4924 31.472C14.9343 31.1771 14.5002 31.6596 13.2599 33.9917L12.0197 36.2971L11.3065 34.6887C10.3143 32.3566 9.8802 31.6596 9.35309 31.472C8.60893 31.2307 7.5237 32.0349 7.12061 33.1071C6.46947 34.8227 6.00438 33.536 6.15941 30.2657C6.22142 28.7109 6.28343 26.4592 6.31444 25.2261L6.34545 23.028H7.21363C8.4539 23.028 8.26786 22.3311 6.96558 22.1434C5.41525 21.929 4.17499 21.0712 3.39982 19.6505C2.77969 18.5782 2.71768 18.1493 2.90372 16.5409C3.08976 14.7181 3.05875 14.5841 2.00453 12.9757C1.4154 12.0375 0.919297 11.0189 0.919297 10.6972C0.919297 9.27648 2.46963 8.28466 4.64009 8.28466C5.88035 8.28466 5.94236 8.31146 6.56249 9.62496C6.90357 10.3487 7.39967 10.9653 7.61672 10.9653C8.17484 10.9653 8.17484 10.9921 7.39967 9.03522C6.68652 7.1856 6.81055 6.08655 7.86477 5.09472C8.79497 4.21012 10.2523 3.72761 12.0817 3.72761C14.5312 3.72761 15.3994 4.34415 15.8025 6.40823C15.8955 6.91754 16.1125 7.34644 16.2676 7.34644C16.7327 7.34644 16.8257 5.71126 16.4226 5.06792C15.9265 4.26373 16.9187 2.89662 18.283 2.46772C19.4922 2.11924 21.4146 2.28008 22.6859 2.8162ZM2.93472 7.1856C3.02774 7.34644 2.8107 7.58769 2.46963 7.74853C1.97352 7.96298 1.84949 7.96298 1.84949 7.66811C1.84949 6.99796 2.56265 6.70309 2.93472 7.1856ZM30.9957 8.55272C30.9957 9.16926 30.7476 9.22287 30.0035 8.71355C29.3833 8.31146 29.5694 8.01659 30.4376 8.01659C30.7786 8.01659 30.9957 8.20424 30.9957 8.55272Z"
    fill="black"
  />
  <path
    d="M18.686 5.87216C17.8178 6.16703 17.5388 7.13205 17.7868 8.6868C18.0349 10.1075 18.717 10.8045 19.4612 10.456C20.6394 9.91989 22.3138 8.2311 22.3138 7.61456C22.3138 6.9444 21.2596 5.87216 20.5774 5.87216C20.3604 5.87216 20.0193 5.81855 19.7713 5.76493C19.5542 5.68452 19.0581 5.73813 18.686 5.87216ZM21.1976 7.26608C21.4456 7.64136 21.3216 7.90943 20.4534 8.6868C19.8643 9.19612 19.3062 9.62502 19.1821 9.62502C18.8721 9.62502 18.5 7.26608 18.748 6.9176C19.0581 6.4887 20.7945 6.75676 21.1976 7.26608Z"
    fill="black"
  />
  <path
    d="M10.1902 7.1856C9.6941 7.6145 9.29102 8.12381 9.29102 8.31146C9.29102 8.4991 9.94215 9.16925 10.7173 9.8126C11.8025 10.724 12.3297 10.9653 12.9498 10.9117C13.756 10.8312 13.787 10.7508 13.88 9.06203C13.942 7.69491 13.849 7.15879 13.4769 6.83712C12.6707 6.14016 11.2134 6.30099 10.1902 7.1856ZM12.9498 8.74035C13.0118 9.51773 12.9498 10.1611 12.8568 10.1611C12.3297 10.1611 10.5313 8.68674 10.5313 8.25784C10.5313 7.66811 11.3685 7.1856 12.2366 7.29282C12.7638 7.34643 12.8568 7.58769 12.9498 8.74035Z"
    fill="black"
  />
  <path
    d="M25.1975 12.2252C24.9184 12.7881 24.7014 13.6727 24.6704 14.1821C24.6394 14.9862 24.7634 15.1471 25.3835 15.2007C26.3757 15.3347 28.7632 14.5037 29.1353 13.914C29.6004 13.1902 29.5384 12.9758 28.6392 12.0644C28.0191 11.421 27.585 11.2334 26.7788 11.2334C25.8176 11.2334 25.6316 11.3406 25.1975 12.2252ZM28.1121 12.7613C28.5152 13.2975 28.4842 13.3779 27.833 13.7532C27.43 13.9676 26.7478 14.2357 26.2827 14.3161L25.4455 14.5037L25.7866 13.4583C25.9416 12.8954 26.1587 12.3324 26.2517 12.2252C26.5308 11.8231 27.647 12.1716 28.1121 12.7613Z"
    fill="black"
  />
  <path
    d="M4.57813 11.9301C3.61693 12.359 3.15183 13.5117 3.61693 14.155C3.80297 14.3963 4.57813 14.7984 5.32229 15.0396C6.46953 15.4149 6.84161 15.4149 7.2757 15.1469C7.7408 14.8788 7.7408 14.6643 7.43074 13.6725C7.12067 12.6271 6.19047 11.4744 5.66336 11.5012C5.50833 11.528 5.04323 11.6889 4.57813 11.9301ZM6.3145 13.4313C6.71759 14.3963 6.50054 14.5303 5.32229 14.155C4.26807 13.8334 4.08203 13.4313 4.70216 12.8951C5.29128 12.3858 5.97343 12.6271 6.3145 13.4313Z"
    fill="black"
  />
  <path
    d="M15.6164 14.1822C14.8722 14.4503 13.2289 16.005 12.0196 17.6402C10.4383 19.8115 11.0894 21.0982 14.004 21.7147C16.9497 22.3044 20.5774 21.6343 21.4146 20.3208C21.9727 19.4094 20.9495 17.6134 18.7791 15.6297C16.7946 13.8605 16.7016 13.8069 15.6164 14.1822ZM18.2519 16.2463C18.9651 16.97 19.8023 18.0155 20.1433 18.6052C20.7015 19.5702 20.7015 19.6774 20.2364 20.1332C19.2442 21.0982 16.1745 21.4198 13.818 20.8033C12.1436 20.3476 11.8026 19.8115 12.4847 18.6052C13.1979 17.3185 15.7404 14.9864 16.4536 14.9864C16.7326 14.9864 17.5698 15.5493 18.2519 16.2463Z"
    fill="black"
  />
  <path
    d="M18.283 19.2753C18.035 19.4093 17.3528 19.5433 16.8257 19.5433C16.2676 19.5433 15.8025 19.6506 15.8025 19.8114C15.8025 20.1599 17.3838 20.1599 18.407 19.8114C18.8411 19.6774 19.2132 19.4361 19.2132 19.2753C19.2132 18.9268 18.9031 18.9268 18.283 19.2753Z"
    fill="black"
  />
  <path
    d="M21.0735 38.9508C21.0735 39.7282 20.9805 41.1221 20.8875 42.0335C20.7014 43.3738 20.7634 43.6687 21.1355 43.6687C21.6936 43.6687 22.0037 42.1139 22.0037 39.3529C22.0037 37.8786 21.9107 37.5033 21.5386 37.5033C21.1975 37.5033 21.0735 37.8518 21.0735 38.9508Z"
    fill="black"
  />
  <path
    d="M15.3755 44.3693C15.3135 44.557 15.1895 45.3612 15.0655 46.1117C14.9414 47.2376 14.9724 47.5325 15.3445 47.5325C15.9336 47.5325 16.1507 46.9427 16.1507 45.3612C16.1507 44.1549 15.6856 43.5652 15.3755 44.3693Z"
    fill="black"
  />
  <path
    d="M6.06635 40.3985C6.00434 40.5057 5.72528 41.5243 5.44622 42.6502C4.82609 45.17 4.79508 46.6979 5.32219 46.5639C5.66327 46.4566 5.84931 45.7061 6.68648 41.3099C6.81051 40.5861 6.7795 40.184 6.56246 40.184C6.37642 40.184 6.15937 40.2644 6.06635 40.3985Z"
    fill="black"
  />
  <path
    d="M7.30659 42.6501C6.9035 44.6606 6.96552 45.4111 7.43062 45.4111C7.77169 45.4111 7.95773 44.9822 8.11276 43.9368C8.23679 43.1326 8.26779 42.3016 8.20578 42.114C7.95773 41.4974 7.46162 41.7923 7.30659 42.6501Z"
    fill="black"
  />
  <path
    d="M12.6087 52.9704C12.5467 53.0776 12.3607 53.8818 12.2677 54.7128C12.0816 55.9995 12.1126 56.2676 12.4847 56.2676C12.9808 56.2676 13.2289 55.5706 13.3839 53.8818C13.4769 53.024 12.9808 52.4343 12.6087 52.9704Z"
    fill="black"
  />
  <path
    d="M22.8099 54.6057C22.7169 54.7397 22.8099 55.6512 23.058 56.5894C23.306 57.5008 23.5851 58.8679 23.7091 59.5648C23.9882 61.3072 24.6703 61.0928 24.5773 59.3236C24.3913 56.5894 23.368 53.8015 22.8099 54.6057Z"
    fill="black"
  />
  <path
    d="M21.2907 56.6965C21.1666 56.8038 21.1356 57.1254 21.2286 57.4471C21.2907 57.7688 21.4457 58.4658 21.5387 59.0019C21.6627 59.672 21.8798 60.0205 22.1899 60.0205C22.5929 60.0205 22.6239 59.7524 22.4379 58.4658C22.3449 57.6348 22.1899 56.8574 22.0968 56.7234C21.9418 56.4821 21.5697 56.4821 21.2907 56.6965Z"
    fill="black"
  />
</svg>
