<svg xmlns="http://www.w3.org/2000/svg" version="1.1" xmlns:xlink="http://www.w3.org/1999/xlink" xmlns:svgjs="http://svgjs.dev/svgjs" width="160" height="320"><svg width="160" height="320" viewBox="0 0 160 320" fill="none" xmlns="http://www.w3.org/2000/svg">
<path d="M108.158 3.0905C105.213 4.8329 99.3216 6.70932 95.1357 7.24545C89.3995 7.9156 86.2988 9.25591 81.9579 13.1428C76.8418 17.4318 75.7566 17.8339 73.4311 16.3595C71.8808 15.4213 68.9351 14.6171 66.9197 14.6171C64.5942 14.6171 61.0285 12.7407 57.6177 9.79204C50.4862 3.4926 46.4554 4.02872 43.3547 11.8025C42.1144 15.0192 38.7037 19.7103 36.0682 22.2569C32.8125 25.0715 30.642 28.8244 30.0219 32.1752C29.4017 34.9898 28.1615 37.4023 27.2313 37.4023C26.3011 37.4023 22.4253 35.5259 18.7045 33.3814C14.9837 31.1029 10.9528 29.3605 9.71257 29.3605C7.23204 29.3605 4.59648 34.7217 4.59648 39.8149C4.59648 41.8254 3.51125 44.64 2.27099 45.9803C-1.60483 50.4033 -0.519602 57.2389 5.52668 66.487C10.6428 74.5288 10.9528 75.6011 9.4025 80.6943C8.31727 84.4471 8.31727 88.2 9.4025 92.2209C11.2629 99.5926 12.5032 101.603 20.0998 109.109C23.6655 112.594 26.6112 117.285 27.2313 120.099C28.6266 126.667 25.836 144.225 17.7743 180.815C6.14681 232.685 5.37165 238.18 5.68171 273.296C5.83675 306.67 7.07701 319.001 10.4877 319.939C12.3481 320.475 12.3481 317.661 11.2629 303.989C9.4025 280.132 10.1777 245.552 13.1233 228.396C16.534 207.085 25.2159 168.752 26.4561 168.752C27.0763 168.752 27.8514 169.959 28.3165 171.433C29.2467 174.784 33.4326 176.258 36.0682 174.248C37.3084 173.444 39.1688 170.361 40.254 167.412C41.3393 164.463 43.0446 162.051 43.9748 162.051C45.0601 162.051 48.6258 167.01 51.8815 173.041C55.4473 179.475 59.013 184.166 60.4083 184.166C62.4238 184.166 68.6251 177.464 70.0204 173.846C70.4855 172.773 71.8808 173.041 74.3613 174.516C79.3223 177.464 85.6787 177.464 88.6243 174.382C89.8646 173.175 92.8102 167.546 95.2907 162.051C97.6162 156.556 100.562 150.926 101.647 149.586C103.507 147.173 103.662 147.173 105.058 149.586C105.833 150.926 108.003 156.958 110.019 162.989C113.74 174.65 117.615 179.609 120.561 176.526C121.491 175.588 123.197 171.433 124.282 167.546C125.522 163.525 127.228 160.04 128.158 159.772C132.034 158.566 137.15 175.99 139.475 199.043C140.405 207.755 143.506 234.025 146.452 257.213C149.397 280.4 152.188 303.855 152.808 309.083C153.583 316.052 154.513 318.867 155.909 318.867C159.009 318.867 158.854 314.98 151.878 260.832C142.886 189.795 140.715 162.721 141.335 133.234C141.956 105.222 140.87 109.645 155.133 81.6325C159.474 73.1886 160.25 70.1058 159.939 62.198C159.939 56.9708 159.784 49.063 159.784 44.506C159.784 39.9489 159.009 35.928 158.079 35.3919C157.149 34.8558 152.808 35.3919 148.312 36.5982C143.816 37.6704 137.46 38.8767 133.894 39.1447L127.538 39.8149L129.088 34.8558C131.103 28.2883 129.398 20.9166 124.592 15.9575C122.421 13.813 121.026 11.5344 121.491 10.8643C121.956 10.1941 121.646 7.51351 120.716 4.8329C118.856 -1.06445 115.91 -1.46655 108.158 3.0905ZM116.22 7.24545C116.22 10.3282 115.91 10.5962 112.809 9.12188C109.554 7.64754 109.554 7.5135 112.344 5.7711C116.22 3.35855 116.22 3.35855 116.22 7.24545ZM54.052 12.4726C55.4473 13.947 54.9822 14.4831 51.8815 14.8852C48.9359 15.4213 48.0057 15.0192 48.0057 13.1428C48.0057 10.1941 51.5714 9.79203 54.052 12.4726ZM113.43 14.081C119.631 16.7616 123.507 20.9166 124.592 25.8757C125.832 31.639 121.801 42.8976 116.995 46.7845C112.654 50.2693 111.879 53.486 115.445 53.486C116.685 53.486 117.77 52.8159 117.77 52.1457C117.77 50.1353 131.723 42.7636 135.444 42.7636C140.87 42.7636 151.413 49.1971 154.203 54.2902C157.924 61.2598 156.374 68.7656 147.847 84.9833C137.925 103.48 136.374 110.315 136.374 137.121C136.374 159.37 136.374 159.772 133.429 157.494C131.723 156.154 128.778 155.349 126.917 155.617C123.507 156.02 122.577 157.36 118.236 168.752C117.77 169.825 115.755 165.268 113.585 158.7C109.399 145.565 108.003 143.287 103.818 143.287C99.6316 143.287 96.686 147.173 90.9498 159.772C88.1592 166.072 85.3686 171.835 84.7485 172.237C84.2834 172.773 82.1129 172.773 79.9425 172.237C74.8264 171.165 73.121 165.938 76.5317 161.381C78.0821 159.37 78.3921 157.896 77.4619 157.36C74.6714 155.885 72.5009 158.298 66.2996 169.959L60.0983 181.485L56.5325 173.444C51.5714 161.783 49.401 158.298 46.7654 157.36C43.0446 156.154 37.6185 160.174 35.6031 165.536C32.3474 174.114 30.0219 167.68 30.797 151.328C31.1071 143.555 31.4172 132.296 31.5722 126.131L31.7272 115.14H36.0682C42.2695 115.14 41.3393 111.655 34.8279 110.717C27.0763 109.645 20.8749 105.356 16.9991 98.2523C13.8985 92.8911 13.5884 90.7466 14.5186 82.7047C15.4488 73.5906 15.2938 72.9205 10.0226 64.8786C7.07701 60.1876 4.59648 55.0944 4.59648 53.486C4.59648 46.3824 12.3481 41.4233 23.2004 41.4233C29.4017 41.4233 29.7118 41.5573 32.8125 48.1248C34.5178 51.7436 36.9984 54.8263 38.0836 54.8263C40.8742 54.8263 40.8742 54.9604 36.9984 45.1761C33.4326 35.928 34.0527 30.4327 39.3238 25.4736C43.9748 21.0506 51.2614 18.6381 60.4083 18.6381C72.6559 18.6381 76.9968 21.7208 79.0123 32.0411C79.4774 34.5877 80.5626 36.7322 81.3378 36.7322C83.6633 36.7322 84.1284 28.5563 82.1129 25.3396C79.6324 21.3187 84.5935 14.4831 91.4149 12.3386C97.4612 10.5962 107.073 11.4004 113.43 14.081ZM14.6736 35.928C15.1387 36.7322 14.0535 37.9385 12.3481 38.7427C9.8676 39.8149 9.24747 39.8149 9.24747 38.3406C9.24747 34.9898 12.8132 33.5155 14.6736 35.928ZM154.978 42.7636C154.978 45.8463 153.738 46.1144 150.017 43.5678C146.917 41.5573 147.847 40.083 152.188 40.083C153.893 40.083 154.978 41.0212 154.978 42.7636Z" fill="white"></path>
<path d="M93.4301 29.3602C89.0892 30.8345 87.6939 35.6596 88.9341 43.4334C90.1744 50.537 93.5851 54.0218 97.3059 52.2794C103.197 49.5988 111.569 41.1549 111.569 38.0722C111.569 34.7214 106.298 29.3602 102.887 29.3602C101.802 29.3602 100.097 29.0921 98.8563 28.8241C97.771 28.422 95.2905 28.69 93.4301 29.3602ZM105.988 36.3298C107.228 38.2062 106.608 39.5465 102.267 43.4334C99.3214 45.98 96.5308 48.1245 95.9106 48.1245C94.3603 48.1245 92.4999 36.3298 93.7402 34.5874C95.2905 32.4429 103.972 33.7832 105.988 36.3298Z" fill="white"></path>
<path d="M50.951 35.9274C48.4705 38.0719 46.4551 40.6184 46.4551 41.5567C46.4551 42.4949 49.7108 45.8456 53.5866 49.0624C59.0127 53.6194 61.6483 54.8257 64.749 54.5576C68.7798 54.1555 68.9348 53.7535 69.3999 45.3095C69.71 38.474 69.2449 35.7933 67.3845 34.185C63.3537 30.7002 56.0671 31.5044 50.951 35.9274ZM64.749 43.7012C65.059 47.588 64.749 50.8048 64.2839 50.8048C61.6483 50.8048 52.6564 43.4331 52.6564 41.2886C52.6564 38.3399 56.8423 35.9274 61.1832 36.4635C63.8188 36.7316 64.2839 37.9378 64.749 43.7012Z" fill="white"></path>
<path d="M125.987 61.1261C124.592 63.9407 123.507 68.3637 123.352 70.9103C123.197 74.9312 123.817 75.7354 126.918 76.0035C131.879 76.6736 143.816 72.5187 145.677 69.57C148.002 65.9512 147.692 64.8789 143.196 60.3219C140.095 57.1051 137.925 56.1669 133.894 56.1669C129.088 56.1669 128.158 56.7031 125.987 61.1261ZM140.561 63.8067C142.576 66.4873 142.421 66.8894 139.165 68.7658C137.15 69.8381 133.739 71.1784 131.414 71.5805L127.228 72.5187L128.933 67.2915C129.708 64.4768 130.793 61.6622 131.259 61.1261C132.654 59.1156 138.235 60.858 140.561 63.8067Z" fill="white"></path>
<path d="M22.8907 59.6512C18.0846 61.7957 15.7591 67.559 18.0846 70.7758C19.0148 71.982 22.8907 73.9925 26.6114 75.1988C32.3477 77.0752 34.2081 77.0752 36.3785 75.7349C38.704 74.3946 38.704 73.3223 37.1537 68.3632C35.6034 63.136 30.9524 57.3727 28.3168 57.5067C27.5416 57.6407 25.2161 58.4449 22.8907 59.6512ZM31.5725 67.1569C33.5879 71.982 32.5027 72.6522 26.6114 70.7758C21.3403 69.1674 20.4101 67.1569 23.5108 64.4763C26.4564 61.9297 29.8671 63.136 31.5725 67.1569Z" fill="white"></path>
<path d="M78.0819 70.9103C74.3611 72.2506 66.1444 80.0244 60.0981 88.2003C52.1914 99.0568 55.4471 105.49 70.0202 108.573C84.7483 111.522 102.887 108.171 107.073 101.603C109.864 97.0463 104.748 88.0663 93.8953 78.148C83.9732 69.302 83.5081 69.0339 78.0819 70.9103ZM91.2597 81.2307C94.8255 84.8495 99.0114 90.0767 100.717 93.0254C103.507 97.8505 103.507 98.3866 101.182 100.665C96.2208 105.49 80.8725 107.099 69.09 104.016C60.7182 101.737 59.0129 99.0568 62.4236 93.0254C65.9894 86.5919 78.702 74.9313 82.2678 74.9313C83.6631 74.9313 87.849 77.7459 91.2597 81.2307Z" fill="white"></path>
<path d="M91.4151 96.3764C90.1748 97.0465 86.7641 97.7167 84.1285 97.7167C81.3379 97.7167 79.0125 98.2528 79.0125 99.057C79.0125 100.799 86.9191 100.799 92.0352 99.057C94.2057 98.3868 96.0661 97.1805 96.0661 96.3764C96.0661 94.634 94.5157 94.634 91.4151 96.3764Z" fill="white"></path>
<path d="M105.368 194.754C105.368 198.641 104.902 205.611 104.437 210.168C103.507 216.869 103.817 218.344 105.678 218.344C108.468 218.344 110.019 210.57 110.019 196.765C110.019 189.393 109.553 187.516 107.693 187.516C105.988 187.516 105.368 189.259 105.368 194.754Z" fill="white"></path>
<path d="M95.2907 198.508C94.9806 199.446 94.3605 203.467 93.7404 207.219C93.1202 212.849 93.2753 214.323 95.1357 214.323C98.0813 214.323 99.1665 211.374 99.1665 203.467C99.1665 197.435 96.841 194.487 95.2907 198.508Z" fill="white"></path>
<path d="M30.3318 201.992C30.0217 202.528 28.6264 207.621 27.2311 213.25C24.1304 225.849 23.9754 233.489 26.611 232.819C28.3163 232.282 29.2465 228.53 33.4324 206.549C34.0526 202.93 33.8975 200.919 32.8123 200.919C31.8821 200.919 30.7969 201.321 30.3318 201.992Z" fill="white"></path>
<path d="M36.533 213.251C34.5175 223.303 34.8276 227.056 37.1531 227.056C38.8584 227.056 39.7886 224.912 40.5638 219.684C41.1839 215.664 41.339 211.509 41.0289 210.57C39.7886 207.488 37.3081 208.962 36.533 213.251Z" fill="white"></path>
<path d="M63.0436 264.853C62.7336 265.389 61.8034 269.41 61.3383 273.565C60.4081 279.998 60.5631 281.338 62.4235 281.338C64.904 281.338 66.1443 277.854 66.9195 269.41C67.3846 265.121 64.904 262.172 63.0436 264.853Z" fill="white"></path>
<path d="M114.05 273.029C113.584 273.699 114.05 278.256 115.29 282.947C116.53 287.504 117.925 294.339 118.546 297.824C119.941 306.536 123.352 305.464 122.886 296.618C121.956 282.947 116.84 269.008 114.05 273.029Z" fill="white"></path>
<path d="M106.453 283.483C105.833 284.019 105.678 285.627 106.143 287.236C106.453 288.844 107.228 292.329 107.694 295.009C108.314 298.36 109.399 300.103 110.949 300.103C112.965 300.103 113.12 298.762 112.19 292.329C111.724 288.174 110.949 284.287 110.484 283.617C109.709 282.41 107.849 282.41 106.453 283.483Z" fill="white"></path>
</svg><style>@media (prefers-color-scheme: light) { :root { filter: contrast(1) brightness(0.1); } }
@media (prefers-color-scheme: dark) { :root { filter: none; } }
</style></svg>