<?xml version="1.0" standalone="no"?>
<!DOCTYPE svg PUBLIC "-//W3C//DTD SVG 20010904//EN"
 "http://www.w3.org/TR/2001/REC-SVG-20010904/DTD/svg10.dtd">
<svg version="1.0" xmlns="http://www.w3.org/2000/svg"
 width="700.000000pt" height="700.000000pt" viewBox="0 0 700.000000 700.000000"
 preserveAspectRatio="xMidYMid meet">
<metadata>
Created by potrace 1.14, written by Peter Selinger 2001-2017
</metadata>
<g transform="translate(0.000000,700.000000) scale(0.100000,-0.100000)"
fill="#000000" stroke="none">
<path d="M3056 6694 c-425 -81 -730 -447 -720 -864 5 -191 43 -320 142 -474
38 -60 147 -178 207 -225 53 -42 182 -105 270 -134 94 -30 109 -31 250 -32
170 0 251 18 383 82 295 143 491 449 493 768 2 245 -77 446 -243 621 -128 134
-298 227 -478 259 -68 13 -236 12 -304 -1z m243 -585 c200 -66 265 -312 125
-468 -156 -174 -450 -98 -499 129 -48 219 161 409 374 339z"/>
<path d="M5125 5534 c-144 -20 -331 -107 -450 -208 -218 -186 -330 -490 -289
-786 4 -30 8 -57 9 -60 1 -3 5 -21 9 -40 15 -63 73 -188 119 -257 126 -189
331 -327 557 -373 96 -19 263 -20 345 0 28 6 57 13 65 15 111 25 295 136 387
233 201 211 286 499 229 779 -66 326 -303 581 -628 673 -71 21 -278 35 -353
24z m249 -605 c90 -42 156 -137 164 -235 17 -201 -159 -354 -354 -309 -135 31
-225 148 -223 289 1 127 96 245 223 277 46 12 142 1 190 -22z"/>
<path d="M1547 4374 c-1 -1 -33 -4 -72 -8 -297 -26 -575 -158 -794 -376 -87
-87 -201 -233 -201 -258 0 -6 -3 -12 -7 -14 -8 -3 -54 -95 -86 -168 -23 -52
-66 -204 -73 -258 -3 -26 -9 -67 -13 -92 -12 -79 -1 -355 15 -381 2 -4 6 -24
10 -44 20 -125 125 -356 220 -485 169 -228 375 -377 654 -475 312 -108 476
-256 578 -521 16 -43 45 -117 62 -164 167 -436 565 -753 1037 -824 84 -13 315
-14 376 -2 15 3 37 8 50 10 292 53 580 222 766 451 177 217 269 435 298 705
16 154 6 1390 -12 1419 -2 4 -6 27 -10 51 -10 76 -54 230 -91 324 -210 531
-671 932 -1219 1061 -191 45 -239 48 -878 49 -335 1 -609 1 -610 0z m1273
-599 c315 -57 591 -234 771 -497 90 -132 165 -319 186 -469 10 -68 11 -1301 1
-1349 -20 -100 -75 -219 -136 -296 -73 -92 -145 -153 -242 -203 -95 -49 -138
-63 -234 -77 -329 -49 -663 146 -780 454 -89 235 -111 286 -157 366 -74 131
-120 189 -238 306 -151 150 -310 250 -516 325 -173 63 -205 77 -263 115 -202
130 -331 363 -334 600 -2 207 70 381 216 525 114 112 211 166 361 200 86 20
1255 20 1365 0z"/>
<path d="M5659 3190 c-260 -54 -490 -230 -606 -465 -33 -66 -72 -177 -79 -225
-2 -16 -6 -45 -9 -62 -14 -94 -1 -243 32 -358 60 -208 211 -396 408 -507 477
-268 1077 -39 1255 477 33 99 49 205 45 310 -3 82 -7 115 -30 210 -40 165
-173 356 -325 467 -113 83 -216 127 -365 158 -72 15 -241 12 -326 -5z m296
-595 c165 -75 220 -283 113 -431 -58 -80 -131 -118 -232 -119 -167 -1 -291
123 -290 290 1 214 214 349 409 260z"/>
</g>
</svg>
